{
	"patcher" : 	{
		"fileversion" : 1,
		"appversion" : 		{
			"major" : 8,
			"minor" : 0,
			"revision" : 3,
			"architecture" : "x64",
			"modernui" : 1
		}
,
		"classnamespace" : "box",
		"openrect" : [ 2.09053, 1.5, 225.0, 536.0 ],
		"bglocked" : 0,
		"openinpresentation" : 1,
		"default_fontsize" : 12.0,
		"default_fontface" : 0,
		"default_fontname" : "Arial",
		"gridonopen" : 1,
		"gridsize" : [ 15.0, 15.0 ],
		"gridsnaponopen" : 1,
		"objectsnaponopen" : 1,
		"statusbarvisible" : 2,
		"toolbarvisible" : 1,
		"lefttoolbarpinned" : 0,
		"toptoolbarpinned" : 0,
		"righttoolbarpinned" : 0,
		"bottomtoolbarpinned" : 0,
		"toolbars_unpinned_last_save" : 0,
		"tallnewobj" : 0,
		"boxanimatetime" : 200,
		"enablehscroll" : 1,
		"enablevscroll" : 1,
		"devicewidth" : 0.0,
		"description" : "",
		"digest" : "",
		"tags" : "",
		"style" : "",
		"subpatcher_template" : "",
		"boxes" : [ 			{
				"box" : 				{
					"id" : "obj-7",
					"linecount" : 2,
					"maxclass" : "newobj",
					"numinlets" : 6,
					"numoutlets" : 1,
					"outlettype" : [ "" ],
					"patching_rect" : [ 509.666656494140625, 270.0, 80.0, 35.0 ],
					"text" : "scale 0. 127. 0. 100."
				}

			}
, 			{
				"box" : 				{
					"id" : "obj-1",
					"linecount" : 2,
					"maxclass" : "newobj",
					"numinlets" : 6,
					"numoutlets" : 1,
					"outlettype" : [ "" ],
					"patching_rect" : [ 698.0, 270.0, 82.0, 35.0 ],
					"presentation_linecount" : 2,
					"text" : "scale 0. 127. 0. 99."
				}

			}
, 			{
				"box" : 				{
					"id" : "obj-26",
					"linecount" : 2,
					"maxclass" : "newobj",
					"numinlets" : 6,
					"numoutlets" : 1,
					"outlettype" : [ "" ],
					"patching_rect" : [ 600.5, 270.0, 86.0, 35.0 ],
					"text" : "scale 0. 127. 0. 3000."
				}

			}
, 			{
				"box" : 				{
					"id" : "obj-14",
					"maxclass" : "newobj",
					"numinlets" : 3,
					"numoutlets" : 1,
					"outlettype" : [ "multichannelsignal" ],
					"patching_rect" : [ 238.0, 552.0, 87.0, 22.0 ],
					"text" : "mc.selector~ 2"
				}

			}
, 			{
				"box" : 				{
					"id" : "obj-2",
					"maxclass" : "newobj",
					"numinlets" : 2,
					"numoutlets" : 2,
					"outlettype" : [ "multichannelsignal", "multichannelsignal" ],
					"patching_rect" : [ 226.0, 360.333343505859375, 68.0, 22.0 ],
					"text" : "mc.gate~ 2"
				}

			}
, 			{
				"box" : 				{
					"id" : "obj-15",
					"maxclass" : "newobj",
					"numinlets" : 2,
					"numoutlets" : 1,
					"outlettype" : [ "int" ],
					"patching_rect" : [ 137.0, 305.333343505859375, 29.5, 22.0 ],
					"text" : "+ 1"
				}

			}
, 			{
				"box" : 				{
					"id" : "obj-12",
					"maxclass" : "newobj",
					"numinlets" : 2,
					"numoutlets" : 1,
					"outlettype" : [ "multichannelsignal" ],
					"patching_rect" : [ 335.0, 489.0, 161.333328247070312, 22.0 ],
					"text" : "mc.pack~"
				}

			}
, 			{
				"box" : 				{
					"id" : "obj-11",
					"maxclass" : "newobj",
					"numinlets" : 1,
					"numoutlets" : 2,
					"outlettype" : [ "signal", "signal" ],
					"patching_rect" : [ 335.166656494140625, 400.0, 90.0, 22.0 ],
					"text" : "mc.unpack~"
				}

			}
, 			{
				"box" : 				{
					"id" : "obj-10",
					"maxclass" : "newobj",
					"numinlets" : 1,
					"numoutlets" : 1,
					"outlettype" : [ "" ],
					"patching_rect" : [ 16.0, 173.66668701171875, 70.0, 22.0 ],
					"text" : "loadmess 0"
				}

			}
, 			{
				"box" : 				{
					"id" : "obj-3",
					"maxclass" : "newobj",
					"numinlets" : 1,
					"numoutlets" : 1,
					"outlettype" : [ "" ],
					"patching_rect" : [ 16.0, 244.333343505859375, 133.0, 22.0 ],
					"text" : "if $i1 == 0 then 1 else 0"
				}

			}
, 			{
				"box" : 				{
					"id" : "obj-8",
					"maxclass" : "toggle",
					"numinlets" : 1,
					"numoutlets" : 1,
					"outlettype" : [ "int" ],
					"parameter_enable" : 0,
					"patching_rect" : [ 16.0, 275.0, 19.0, 19.0 ]
				}

			}
, 			{
				"box" : 				{
					"bgcolor" : [ 0.0, 0.0, 0.0, 0.0 ],
					"bgcolor2" : [ 0.0, 0.0, 0.0, 0.0 ],
					"bgfillcolor_angle" : 270.0,
					"bgfillcolor_autogradient" : 0.0,
					"bgfillcolor_color" : [ 0.2, 0.2, 0.2, 1.0 ],
					"bgfillcolor_color1" : [ 0.0, 0.0, 0.0, 0.0 ],
					"bgfillcolor_color2" : [ 0.0, 0.0, 0.0, 0.0 ],
					"bgfillcolor_proportion" : 0.5,
					"bgfillcolor_type" : "gradient",
					"fontface" : 1,
					"fontname" : "Avenir Next Regular",
					"frozen_box_attributes" : [ "textcolor" ],
					"gradient" : 1,
					"id" : "obj-40",
					"ignoreclick" : 1,
					"maxclass" : "message",
					"numinlets" : 2,
					"numoutlets" : 1,
					"outlettype" : [ "" ],
					"patching_rect" : [ 460.666656494140625, 562.0, 178.0, 25.0 ],
					"presentation" : 1,
					"presentation_rect" : [ 77.590530395507812, 512.5, 74.0, 25.0 ],
					"text" : "BYPASSED",
					"textcolor" : [ 0.996078431606293, 0.87058824300766, 0.121568627655506, 1.0 ],
					"textjustification" : 1
				}

			}
, 			{
				"box" : 				{
					"id" : "obj-27",
					"maxclass" : "newobj",
					"numinlets" : 7,
					"numoutlets" : 4,
					"outlettype" : [ "signal", "signal", "", "" ],
					"patching_rect" : [ 335.0, 447.0, 446.0, 22.0 ],
					"text" : "poly~ dtdelay 1 @target 0"
				}

			}
, 			{
				"box" : 				{
					"id" : "obj-6",
					"maxclass" : "newobj",
					"numinlets" : 0,
					"numoutlets" : 9,
					"outlettype" : [ "", "", "", "", "", "", "", "", "" ],
					"patching_rect" : [ 399.5, 16.0, 234.0, 22.0 ],
					"text" : "Parameter_Receive_MainDevice6.maxpat"
				}

			}
, 			{
				"box" : 				{
					"bgcolor" : [ 0.0, 0.0, 0.0, 0.0 ],
					"cantchange" : 1,
					"htricolor" : [ 0.941176470588235, 0.847058823529412, 0.274509803921569, 1.0 ],
					"id" : "obj-32",
					"maxclass" : "number",
					"numinlets" : 1,
					"numoutlets" : 2,
					"outlettype" : [ "", "bang" ],
					"parameter_enable" : 0,
					"patching_rect" : [ 549.0, 384.333343505859375, 50.0, 22.0 ],
					"presentation" : 1,
					"presentation_rect" : [ 89.590530395507812, 216.885208129882812, 50.0, 22.0 ],
					"tricolor" : [ 0.941176470588235, 0.847058823529412, 0.274509803921569, 1.0 ]
				}

			}
, 			{
				"box" : 				{
					"bgcolor" : [ 0.0, 0.0, 0.0, 0.0 ],
					"cantchange" : 1,
					"htricolor" : [ 0.941176470588235, 0.847058823529412, 0.274509803921569, 1.0 ],
					"id" : "obj-28",
					"maxclass" : "number",
					"numinlets" : 1,
					"numoutlets" : 2,
					"outlettype" : [ "", "bang" ],
					"parameter_enable" : 0,
					"patching_rect" : [ 618.5, 384.333343505859375, 50.0, 22.0 ],
					"presentation" : 1,
					"presentation_rect" : [ 89.590530395507812, 106.5, 50.0, 22.0 ],
					"tricolor" : [ 0.941176470588235, 0.847058823529412, 0.274509803921569, 1.0 ]
				}

			}
, 			{
				"box" : 				{
					"bgcolor" : [ 0.0, 0.0, 0.0, 0.0 ],
					"cantchange" : 1,
					"htricolor" : [ 0.941176470588235, 0.847058823529412, 0.274509803921569, 1.0 ],
					"id" : "obj-25",
					"maxclass" : "number",
					"numinlets" : 1,
					"numoutlets" : 2,
					"outlettype" : [ "", "bang" ],
					"parameter_enable" : 0,
					"patching_rect" : [ 698.0, 383.3333740234375, 50.0, 22.0 ],
					"presentation" : 1,
					"presentation_rect" : [ 89.590530395507812, 329.029144287109375, 50.0, 22.0 ],
					"tricolor" : [ 0.941176470588235, 0.847058823529412, 0.274509803921569, 1.0 ]
				}

			}
, 			{
				"box" : 				{
					"fontname" : "Avenir Next Ultra Light",
					"fontsize" : 20.0,
					"id" : "obj-13",
					"maxclass" : "comment",
					"numinlets" : 1,
					"numoutlets" : 0,
					"patching_rect" : [ 1103.0, 190.333343505859375, 271.0, 34.0 ],
					"presentation" : 1,
					"presentation_rect" : [ 38.590530395507812, 1.5, 152.0, 34.0 ],
					"text" : "Feedback Delay",
					"textcolor" : [ 0.996078431606293, 0.996078431606293, 0.996078431606293, 1.0 ],
					"textjustification" : 1
				}

			}
, 			{
				"box" : 				{
					"fontname" : "Avenir Next Regular",
					"fontsize" : 10.0,
					"id" : "obj-100",
					"maxclass" : "comment",
					"numinlets" : 1,
					"numoutlets" : 0,
					"patching_rect" : [ 1144.0, 260.833343505859375, 184.0, 20.0 ],
					"presentation" : 1,
					"presentation_rect" : [ 42.590530395507812, 259.5, 144.0, 20.0 ],
					"text" : "Dry/Wet",
					"textcolor" : [ 0.996078431606293, 0.996078431606293, 0.996078431606293, 1.0 ],
					"textjustification" : 1
				}

			}
, 			{
				"box" : 				{
					"fontname" : "Avenir Next Regular",
					"fontsize" : 10.0,
					"id" : "obj-91",
					"maxclass" : "comment",
					"numinlets" : 1,
					"numoutlets" : 0,
					"patching_rect" : [ 1123.0, 219.333343505859375, 156.0, 20.0 ],
					"presentation" : 1,
					"presentation_rect" : [ 42.590530395507812, 375.43939208984375, 144.0, 20.0 ],
					"text" : "Freeze",
					"textcolor" : [ 0.996078431606293, 0.996078431606293, 0.996078431606293, 1.0 ],
					"textjustification" : 1
				}

			}
, 			{
				"box" : 				{
					"fontname" : "Avenir Next Regular",
					"fontsize" : 10.0,
					"id" : "obj-89",
					"maxclass" : "comment",
					"numinlets" : 1,
					"numoutlets" : 0,
					"patching_rect" : [ 1136.0, 244.333343505859375, 192.0, 20.0 ],
					"presentation" : 1,
					"presentation_rect" : [ 51.590530395507812, 433.43939208984375, 126.0, 20.0 ],
					"text" : "On/Off",
					"textcolor" : [ 0.996078431606293, 0.996078431606293, 0.996078431606293, 1.0 ],
					"textjustification" : 1
				}

			}
, 			{
				"box" : 				{
					"fontname" : "Avenir Next Regular",
					"fontsize" : 10.0,
					"id" : "obj-87",
					"maxclass" : "comment",
					"numinlets" : 1,
					"numoutlets" : 0,
					"patching_rect" : [ 1241.5, 200.833343505859375, 192.0, 20.0 ],
					"text" : "Variance",
					"textcolor" : [ 0.996078431606293, 0.996078431606293, 0.996078431606293, 1.0 ]
				}

			}
, 			{
				"box" : 				{
					"fontname" : "Avenir Next Regular",
					"fontsize" : 10.0,
					"id" : "obj-85",
					"maxclass" : "comment",
					"numinlets" : 1,
					"numoutlets" : 0,
					"patching_rect" : [ 1113.5, 193.833343505859375, 212.0, 20.0 ],
					"presentation" : 1,
					"presentation_rect" : [ 42.590530395507812, 147.356063842773438, 144.0, 20.0 ],
					"text" : "Feedback",
					"textcolor" : [ 0.996078431606293, 0.996078431606293, 0.996078431606293, 1.0 ],
					"textjustification" : 1
				}

			}
, 			{
				"box" : 				{
					"fontname" : "Avenir Next Regular",
					"fontsize" : 10.0,
					"id" : "obj-83",
					"maxclass" : "comment",
					"numinlets" : 1,
					"numoutlets" : 0,
					"patching_rect" : [ 1039.5, 200.833343505859375, 248.0, 20.0 ],
					"presentation" : 1,
					"presentation_rect" : [ 42.590530395507812, 37.5, 144.0, 20.0 ],
					"text" : "Time",
					"textcolor" : [ 0.996078431606293, 0.996078431606293, 0.996078431606293, 1.0 ],
					"textjustification" : 1
				}

			}
, 			{
				"box" : 				{
					"bgcolor" : [ 0.0, 0.0, 0.0, 0.0 ],
					"checkedcolor" : [ 0.941176470588235, 0.847058823529412, 0.274509803921569, 1.0 ],
					"id" : "obj-64",
					"maxclass" : "toggle",
					"numinlets" : 1,
					"numoutlets" : 1,
					"outlettype" : [ "int" ],
					"parameter_enable" : 1,
					"patching_rect" : [ 16.0, 215.333343505859375, 24.0, 24.0 ],
					"presentation" : 1,
					"presentation_rect" : [ 97.590530395507812, 476.5, 34.0, 34.0 ],
					"saved_attribute_attributes" : 					{
						"valueof" : 						{
							"parameter_shortname" : "toggle[1]",
							"parameter_enum" : [ "off", "on" ],
							"parameter_type" : 1,
							"parameter_longname" : "toggle[45]",
							"parameter_mmax" : 1.0
						}

					}
,
					"uncheckedcolor" : [ 0.349019607843137, 0.349019607843137, 0.349019607843137, 1.0 ],
					"varname" : "toggle[1]"
				}

			}
, 			{
				"box" : 				{
					"bgcolor" : [ 0.0, 0.0, 0.0, 0.0 ],
					"checkedcolor" : [ 0.941176470588235, 0.847058823529412, 0.274509803921569, 1.0 ],
					"id" : "obj-18",
					"maxclass" : "toggle",
					"numinlets" : 1,
					"numoutlets" : 1,
					"outlettype" : [ "int" ],
					"parameter_enable" : 1,
					"patching_rect" : [ 477.333343505859375, 381.333343505859375, 24.0, 24.0 ],
					"presentation" : 1,
					"presentation_rect" : [ 97.590530395507812, 397.43939208984375, 34.0, 34.0 ],
					"saved_attribute_attributes" : 					{
						"valueof" : 						{
							"parameter_shortname" : "toggle",
							"parameter_enum" : [ "off", "on" ],
							"parameter_type" : 1,
							"parameter_longname" : "toggle[40]",
							"parameter_mmax" : 1.0
						}

					}
,
					"uncheckedcolor" : [ 0.349019607843137, 0.349019607843137, 0.349019607843137, 1.0 ],
					"varname" : "toggle"
				}

			}
, 			{
				"box" : 				{
					"comment" : "",
					"id" : "obj-5",
					"index" : 0,
					"maxclass" : "outlet",
					"numinlets" : 1,
					"numoutlets" : 0,
					"patching_rect" : [ 205.5, 679.0, 30.0, 30.0 ]
				}

			}
, 			{
				"box" : 				{
					"comment" : "",
					"id" : "obj-4",
					"index" : 0,
					"maxclass" : "inlet",
					"numinlets" : 0,
					"numoutlets" : 1,
					"outlettype" : [ "" ],
					"patching_rect" : [ 312.5, 297.333343505859375, 30.0, 30.0 ]
				}

			}
, 			{
				"box" : 				{
					"bgcolor" : [ 0.0, 0.0, 0.0, 0.0 ],
					"id" : "obj-29",
					"maxclass" : "dial",
					"needlecolor" : [ 0.941176470588235, 0.847058823529412, 0.274509803921569, 1.0 ],
					"numinlets" : 1,
					"numoutlets" : 1,
					"outlettype" : [ "float" ],
					"outlinecolor" : [ 0.349019607843137, 0.349019607843137, 0.349019607843137, 1.0 ],
					"parameter_enable" : 1,
					"patching_rect" : [ 618.5, 342.333343505859375, 40.0, 40.0 ],
					"presentation" : 1,
					"presentation_rect" : [ 92.090530395507812, 59.5, 45.0, 45.0 ],
					"saved_attribute_attributes" : 					{
						"valueof" : 						{
							"parameter_shortname" : "dial[2]",
							"parameter_type" : 0,
							"parameter_units" : "ms",
							"parameter_longname" : "dial[91]",
							"parameter_initial_enable" : 1,
							"parameter_mmax" : 3000.0,
							"parameter_initial" : [ 1000 ]
						}

					}
,
					"size" : 3001.0,
					"varname" : "dial[2]"
				}

			}
, 			{
				"box" : 				{
					"bgcolor" : [ 0.0, 0.0, 0.0, 0.0 ],
					"id" : "obj-67",
					"maxclass" : "dial",
					"needlecolor" : [ 0.941176470588235, 0.847058823529412, 0.274509803921569, 1.0 ],
					"numinlets" : 1,
					"numoutlets" : 1,
					"outlettype" : [ "float" ],
					"outlinecolor" : [ 0.349019607843137, 0.349019607843137, 0.349019607843137, 1.0 ],
					"parameter_enable" : 1,
					"patching_rect" : [ 549.0, 342.333343505859375, 40.0, 40.0 ],
					"presentation" : 1,
					"presentation_rect" : [ 92.090530395507812, 169.356063842773438, 45.529148101806641, 45.529148101806641 ],
					"saved_attribute_attributes" : 					{
						"valueof" : 						{
							"parameter_shortname" : "dial[1]",
							"parameter_type" : 1,
							"parameter_unitstyle" : 5,
							"parameter_longname" : "dial[200]",
							"parameter_initial_enable" : 1,
							"parameter_mmax" : 100.0,
							"parameter_initial" : [ 20 ]
						}

					}
,
					"size" : 101.0,
					"varname" : "dial[1]"
				}

			}
, 			{
				"box" : 				{
					"bgcolor" : [ 0.0, 0.0, 0.0, 0.0 ],
					"id" : "obj-93",
					"maxclass" : "dial",
					"needlecolor" : [ 0.941176470588235, 0.847058823529412, 0.274509803921569, 1.0 ],
					"numinlets" : 1,
					"numoutlets" : 1,
					"outlettype" : [ "float" ],
					"outlinecolor" : [ 0.349019607843137, 0.349019607843137, 0.349019607843137, 1.0 ],
					"parameter_enable" : 1,
					"patching_rect" : [ 698.0, 342.333343505859375, 40.0, 40.0 ],
					"presentation" : 1,
					"presentation_rect" : [ 92.090530395507812, 281.5, 45.529148101806641, 45.529148101806641 ],
					"saved_attribute_attributes" : 					{
						"valueof" : 						{
							"parameter_shortname" : "dial[3]",
							"parameter_type" : 1,
							"parameter_unitstyle" : 0,
							"parameter_longname" : "dial[90]",
							"parameter_initial_enable" : 1,
							"parameter_mmax" : 99.0,
							"parameter_initial" : [ 50 ]
						}

					}
,
					"size" : 100.0,
					"varname" : "dial[3]"
				}

			}
 ],
		"lines" : [ 			{
				"patchline" : 				{
					"destination" : [ "obj-93", 0 ],
					"source" : [ "obj-1", 0 ]
				}

			}
, 			{
				"patchline" : 				{
					"destination" : [ "obj-64", 0 ],
					"source" : [ "obj-10", 0 ]
				}

			}
, 			{
				"patchline" : 				{
					"destination" : [ "obj-27", 1 ],
					"source" : [ "obj-11", 1 ]
				}

			}
, 			{
				"patchline" : 				{
					"destination" : [ "obj-27", 0 ],
					"source" : [ "obj-11", 0 ]
				}

			}
, 			{
				"patchline" : 				{
					"destination" : [ "obj-14", 1 ],
					"source" : [ "obj-12", 0 ]
				}

			}
, 			{
				"patchline" : 				{
					"destination" : [ "obj-5", 0 ],
					"source" : [ "obj-14", 0 ]
				}

			}
, 			{
				"patchline" : 				{
					"destination" : [ "obj-14", 0 ],
					"order" : 0,
					"source" : [ "obj-15", 0 ]
				}

			}
, 			{
				"patchline" : 				{
					"destination" : [ "obj-2", 0 ],
					"order" : 1,
					"source" : [ "obj-15", 0 ]
				}

			}
, 			{
				"patchline" : 				{
					"destination" : [ "obj-27", 2 ],
					"source" : [ "obj-18", 0 ]
				}

			}
, 			{
				"patchline" : 				{
					"destination" : [ "obj-11", 0 ],
					"source" : [ "obj-2", 0 ]
				}

			}
, 			{
				"patchline" : 				{
					"destination" : [ "obj-14", 2 ],
					"source" : [ "obj-2", 1 ]
				}

			}
, 			{
				"patchline" : 				{
					"destination" : [ "obj-27", 6 ],
					"source" : [ "obj-25", 0 ]
				}

			}
, 			{
				"patchline" : 				{
					"destination" : [ "obj-29", 0 ],
					"source" : [ "obj-26", 0 ]
				}

			}
, 			{
				"patchline" : 				{
					"destination" : [ "obj-12", 1 ],
					"source" : [ "obj-27", 1 ]
				}

			}
, 			{
				"patchline" : 				{
					"destination" : [ "obj-12", 0 ],
					"source" : [ "obj-27", 0 ]
				}

			}
, 			{
				"patchline" : 				{
					"destination" : [ "obj-40", 1 ],
					"source" : [ "obj-27", 2 ]
				}

			}
, 			{
				"patchline" : 				{
					"destination" : [ "obj-27", 4 ],
					"source" : [ "obj-28", 0 ]
				}

			}
, 			{
				"patchline" : 				{
					"destination" : [ "obj-28", 0 ],
					"source" : [ "obj-29", 0 ]
				}

			}
, 			{
				"patchline" : 				{
					"destination" : [ "obj-8", 0 ],
					"source" : [ "obj-3", 0 ]
				}

			}
, 			{
				"patchline" : 				{
					"destination" : [ "obj-27", 3 ],
					"source" : [ "obj-32", 0 ]
				}

			}
, 			{
				"patchline" : 				{
					"destination" : [ "obj-2", 1 ],
					"source" : [ "obj-4", 0 ]
				}

			}
, 			{
				"patchline" : 				{
					"destination" : [ "obj-1", 0 ],
					"source" : [ "obj-6", 2 ]
				}

			}
, 			{
				"patchline" : 				{
					"destination" : [ "obj-26", 0 ],
					"source" : [ "obj-6", 0 ]
				}

			}
, 			{
				"patchline" : 				{
					"destination" : [ "obj-7", 0 ],
					"source" : [ "obj-6", 1 ]
				}

			}
, 			{
				"patchline" : 				{
					"destination" : [ "obj-3", 0 ],
					"source" : [ "obj-64", 0 ]
				}

			}
, 			{
				"patchline" : 				{
					"destination" : [ "obj-32", 0 ],
					"source" : [ "obj-67", 0 ]
				}

			}
, 			{
				"patchline" : 				{
					"destination" : [ "obj-67", 0 ],
					"source" : [ "obj-7", 0 ]
				}

			}
, 			{
				"patchline" : 				{
					"destination" : [ "obj-15", 0 ],
					"order" : 1,
					"source" : [ "obj-8", 0 ]
				}

			}
, 			{
				"patchline" : 				{
					"destination" : [ "obj-27", 5 ],
					"midpoints" : [ 25.5, 445.0, 282.0, 445.0, 282.0, 432.0, 700.333333333333258, 432.0 ],
					"order" : 0,
					"source" : [ "obj-8", 0 ]
				}

			}
, 			{
				"patchline" : 				{
					"destination" : [ "obj-25", 0 ],
					"source" : [ "obj-93", 0 ]
				}

			}
 ],
		"parameters" : 		{
			"obj-93" : [ "dial[90]", "dial[3]", 0 ],
			"obj-27.1::obj-21::obj-4" : [ "live.gain~[13]", "live.gain~[5]", 0 ],
			"obj-18" : [ "toggle[40]", "toggle", 0 ],
			"obj-67" : [ "dial[200]", "dial[1]", 0 ],
			"obj-27.1::obj-21::obj-1" : [ "live.gain~[14]", "live.gain~", 0 ],
			"obj-64" : [ "toggle[45]", "toggle[1]", 0 ],
			"obj-27.1::obj-21::obj-14" : [ "live.gain~[12]", "live.gain~[1]", 0 ],
			"obj-29" : [ "dial[91]", "dial[2]", 0 ],
			"parameterbanks" : 			{

			}

		}
,
		"dependency_cache" : [ 			{
				"name" : "Parameter_Receive_MainDevice6.maxpat",
				"bootpath" : "~/Documents/Arduino/Test 6.0 VERS1/patchers",
				"patcherrelativepath" : ".",
				"type" : "JSON",
				"implicit" : 1
			}
, 			{
				"name" : "dtdelay.maxpat",
				"bootpath" : "~/Documents/Arduino/Test 6.0 VERS1/patchers",
				"patcherrelativepath" : ".",
				"type" : "JSON",
				"implicit" : 1
			}
 ],
		"autosave" : 0
	}

}
