{
	"patcher" : 	{
		"fileversion" : 1,
		"appversion" : 		{
			"major" : 8,
			"minor" : 0,
			"revision" : 2,
			"architecture" : "x64",
			"modernui" : 1
		}
,
		"classnamespace" : "box",
		"openrect" : [ 2.09053, 1.5, 225.0, 536.0 ],
		"bglocked" : 0,
		"openinpresentation" : 1,
		"default_fontsize" : 12.0,
		"default_fontface" : 0,
		"default_fontname" : "Arial",
		"gridonopen" : 1,
		"gridsize" : [ 15.0, 15.0 ],
		"gridsnaponopen" : 1,
		"objectsnaponopen" : 1,
		"statusbarvisible" : 2,
		"toolbarvisible" : 1,
		"lefttoolbarpinned" : 0,
		"toptoolbarpinned" : 0,
		"righttoolbarpinned" : 0,
		"bottomtoolbarpinned" : 0,
		"toolbars_unpinned_last_save" : 0,
		"tallnewobj" : 0,
		"boxanimatetime" : 200,
		"enablehscroll" : 1,
		"enablevscroll" : 1,
		"devicewidth" : 0.0,
		"description" : "",
		"digest" : "",
		"tags" : "",
		"style" : "",
		"subpatcher_template" : "",
		"boxes" : [ 			{
				"box" : 				{
					"id" : "obj-19",
					"maxclass" : "newobj",
					"numinlets" : 6,
					"numoutlets" : 1,
					"outlettype" : [ "" ],
					"patching_rect" : [ 428.66668701171875, 119.0, 102.0, 22.0 ],
					"text" : "scale 0 127 0 511"
				}

			}
, 			{
				"box" : 				{
					"id" : "obj-9",
					"maxclass" : "newobj",
					"numinlets" : 3,
					"numoutlets" : 1,
					"outlettype" : [ "multichannelsignal" ],
					"patching_rect" : [ 147.0, 488.0, 87.0, 22.0 ],
					"text" : "mc.selector~ 2"
				}

			}
, 			{
				"box" : 				{
					"id" : "obj-13",
					"maxclass" : "newobj",
					"numinlets" : 2,
					"numoutlets" : 2,
					"outlettype" : [ "multichannelsignal", "multichannelsignal" ],
					"patching_rect" : [ 135.0, 296.333343505859375, 68.0, 22.0 ],
					"text" : "mc.gate~ 2"
				}

			}
, 			{
				"box" : 				{
					"id" : "obj-3",
					"maxclass" : "newobj",
					"numinlets" : 2,
					"numoutlets" : 1,
					"outlettype" : [ "int" ],
					"patching_rect" : [ 90.0, 224.0, 29.5, 22.0 ],
					"text" : "+ 1"
				}

			}
, 			{
				"box" : 				{
					"id" : "obj-18",
					"maxclass" : "newobj",
					"numinlets" : 2,
					"numoutlets" : 1,
					"outlettype" : [ "multichannelsignal" ],
					"patching_rect" : [ 225.0, 423.0, 116.571426391601562, 22.0 ],
					"text" : "mc.pack~"
				}

			}
, 			{
				"box" : 				{
					"id" : "obj-11",
					"maxclass" : "newobj",
					"numinlets" : 1,
					"numoutlets" : 2,
					"outlettype" : [ "signal", "signal" ],
					"patching_rect" : [ 225.0, 322.0, 74.0, 22.0 ],
					"text" : "mc.unpack~"
				}

			}
, 			{
				"box" : 				{
					"id" : "obj-7",
					"maxclass" : "newobj",
					"numinlets" : 1,
					"numoutlets" : 1,
					"outlettype" : [ "" ],
					"patching_rect" : [ 358.0, 173.0, 70.0, 22.0 ],
					"text" : "loadmess 0"
				}

			}
, 			{
				"box" : 				{
					"id" : "obj-5",
					"maxclass" : "newobj",
					"numinlets" : 1,
					"numoutlets" : 1,
					"outlettype" : [ "" ],
					"patching_rect" : [ 333.0, 256.0, 133.0, 22.0 ],
					"text" : "if $i1 == 0 then 1 else 0"
				}

			}
, 			{
				"box" : 				{
					"id" : "obj-6",
					"maxclass" : "toggle",
					"numinlets" : 1,
					"numoutlets" : 1,
					"outlettype" : [ "int" ],
					"parameter_enable" : 0,
					"patching_rect" : [ 333.0, 285.0, 19.0, 19.0 ]
				}

			}
, 			{
				"box" : 				{
					"fontname" : "Avenir Next Regular",
					"fontsize" : 10.0,
					"id" : "obj-46",
					"maxclass" : "comment",
					"numinlets" : 1,
					"numoutlets" : 0,
					"patching_rect" : [ 774.0, 197.0, 133.0, 20.0 ],
					"presentation" : 1,
					"presentation_rect" : [ 42.590530395507812, 344.0, 144.0, 20.0 ],
					"text" : "Q-Faktor",
					"textcolor" : [ 0.996078431606293, 0.996078431606293, 0.996078431606293, 1.0 ],
					"textjustification" : 1
				}

			}
, 			{
				"box" : 				{
					"id" : "obj-44",
					"maxclass" : "message",
					"numinlets" : 2,
					"numoutlets" : 1,
					"outlettype" : [ "" ],
					"patching_rect" : [ 587.75, 244.0, 55.0, 22.0 ],
					"text" : "hidden 0"
				}

			}
, 			{
				"box" : 				{
					"id" : "obj-43",
					"maxclass" : "message",
					"numinlets" : 2,
					"numoutlets" : 1,
					"outlettype" : [ "" ],
					"patching_rect" : [ 539.0, 244.0, 55.0, 22.0 ],
					"text" : "hidden 1"
				}

			}
, 			{
				"box" : 				{
					"id" : "obj-42",
					"maxclass" : "newobj",
					"numinlets" : 4,
					"numoutlets" : 4,
					"outlettype" : [ "bang", "bang", "bang", "" ],
					"patching_rect" : [ 644.75, 191.0, 70.0, 22.0 ],
					"text" : "select 0 1 2"
				}

			}
, 			{
				"box" : 				{
					"bgcolor" : [ 0.0, 0.0, 0.0, 0.0 ],
					"hidden" : 1,
					"id" : "obj-37",
					"maxclass" : "number",
					"numinlets" : 1,
					"numoutlets" : 2,
					"outlettype" : [ "", "bang" ],
					"parameter_enable" : 0,
					"patching_rect" : [ 630.4285888671875, 475.0, 50.0, 22.0 ],
					"presentation" : 1,
					"presentation_rect" : [ 87.590530395507812, 413.0, 50.0, 22.0 ],
					"tricolor" : [ 0.996078431372549, 0.870588235294118, 0.12156862745098, 1.0 ]
				}

			}
, 			{
				"box" : 				{
					"id" : "obj-36",
					"linecount" : 2,
					"maxclass" : "newobj",
					"numinlets" : 6,
					"numoutlets" : 1,
					"outlettype" : [ "" ],
					"patching_rect" : [ 630.4285888671875, 417.0, 131.0, 35.0 ],
					"text" : "scale 0.1 8. -18. 8. 0.2 @classic 0"
				}

			}
, 			{
				"box" : 				{
					"bgcolor" : [ 0.0, 0.0, 0.0, 0.0 ],
					"hidden" : 1,
					"id" : "obj-33",
					"maxclass" : "dial",
					"mode" : 4,
					"needlecolor" : [ 0.996078431372549, 0.870588235294118, 0.12156862745098, 1.0 ],
					"numinlets" : 1,
					"numoutlets" : 1,
					"outlettype" : [ "float" ],
					"parameter_enable" : 1,
					"patching_rect" : [ 541.0, 317.0, 40.0, 40.0 ],
					"presentation" : 1,
					"presentation_rect" : [ 92.090530395507812, 366.0, 45.0, 45.0 ],
					"saved_attribute_attributes" : 					{
						"valueof" : 						{
							"parameter_longname" : "dial[28]",
							"parameter_initial_enable" : 1,
							"parameter_initial" : [ 76.0 ],
							"parameter_shortname" : "dial[2]",
							"parameter_type" : 0,
							"parameter_unitstyle" : 1
						}

					}
,
					"varname" : "dial[1]"
				}

			}
, 			{
				"box" : 				{
					"id" : "obj-32",
					"maxclass" : "message",
					"numinlets" : 2,
					"numoutlets" : 1,
					"outlettype" : [ "" ],
					"patching_rect" : [ 711.0, 108.0, 29.5, 22.0 ],
					"text" : "1"
				}

			}
, 			{
				"box" : 				{
					"id" : "obj-31",
					"maxclass" : "newobj",
					"numinlets" : 1,
					"numoutlets" : 1,
					"outlettype" : [ "bang" ],
					"patching_rect" : [ 721.0, 62.0, 58.0, 22.0 ],
					"text" : "loadbang"
				}

			}
, 			{
				"box" : 				{
					"id" : "obj-26",
					"maxclass" : "message",
					"numinlets" : 2,
					"numoutlets" : 1,
					"outlettype" : [ "" ],
					"patching_rect" : [ 665.0, 335.0, 29.5, 22.0 ],
					"text" : "5"
				}

			}
, 			{
				"box" : 				{
					"id" : "obj-24",
					"maxclass" : "message",
					"numinlets" : 2,
					"numoutlets" : 1,
					"outlettype" : [ "" ],
					"patching_rect" : [ 599.25, 335.0, 29.5, 22.0 ],
					"text" : "1"
				}

			}
, 			{
				"box" : 				{
					"bgfillcolor_angle" : 270.0,
					"bgfillcolor_autogradient" : 0.0,
					"bgfillcolor_color" : [ 0.2, 0.2, 0.2, 1.0 ],
					"bgfillcolor_color1" : [ 0.0, 0.0, 0.0, 0.0 ],
					"bgfillcolor_color2" : [ 0.0, 0.0, 0.0, 0.0 ],
					"bgfillcolor_proportion" : 0.5,
					"bgfillcolor_type" : "gradient",
					"color" : [ 0.996078431372549, 0.870588235294118, 0.12156862745098, 1.0 ],
					"id" : "obj-21",
					"items" : [ "Low", "Pass", ",", "High", "Pass", ",", "Peak/Notch" ],
					"maxclass" : "umenu",
					"numinlets" : 1,
					"numoutlets" : 3,
					"outlettype" : [ "int", "", "" ],
					"parameter_enable" : 0,
					"patching_rect" : [ 642.0, 156.0, 100.0, 22.0 ],
					"presentation" : 1,
					"presentation_rect" : [ 64.590530395507812, 36.5, 100.0, 22.0 ],
					"textcolor" : [ 0.996078431372549, 0.870588235294118, 0.12156862745098, 1.0 ]
				}

			}
, 			{
				"box" : 				{
					"id" : "obj-1",
					"maxclass" : "message",
					"numinlets" : 2,
					"numoutlets" : 1,
					"outlettype" : [ "" ],
					"patching_rect" : [ 632.16668701171875, 335.0, 29.5, 22.0 ],
					"text" : "2"
				}

			}
, 			{
				"box" : 				{
					"bgcolor" : [ 0.0, 0.0, 0.0, 0.0 ],
					"bgcolor2" : [ 0.0, 0.0, 0.0, 0.0 ],
					"bgfillcolor_angle" : 270.0,
					"bgfillcolor_autogradient" : 0.0,
					"bgfillcolor_color" : [ 0.2, 0.2, 0.2, 1.0 ],
					"bgfillcolor_color1" : [ 0.0, 0.0, 0.0, 0.0 ],
					"bgfillcolor_color2" : [ 0.0, 0.0, 0.0, 0.0 ],
					"bgfillcolor_proportion" : 0.5,
					"bgfillcolor_type" : "gradient",
					"fontface" : 1,
					"fontname" : "Avenir Next Regular",
					"gradient" : 1,
					"id" : "obj-20",
					"ignoreclick" : 1,
					"maxclass" : "message",
					"numinlets" : 2,
					"numoutlets" : 1,
					"outlettype" : [ "" ],
					"patching_rect" : [ 348.0, 423.0, 90.0, 25.0 ],
					"presentation" : 1,
					"presentation_rect" : [ 77.590530395507812, 511.5, 74.0, 25.0 ],
					"text" : "BYPASSED",
					"textcolor" : [ 0.996078431606293, 0.87058824300766, 0.121568627655506, 1.0 ],
					"textjustification" : 1
				}

			}
, 			{
				"box" : 				{
					"bgcolor" : [ 0.0, 0.0, 0.0, 0.0 ],
					"htricolor" : [ 0.996078431372549, 0.870588235294118, 0.12156862745098, 1.0 ],
					"id" : "obj-16",
					"maxclass" : "number",
					"numinlets" : 1,
					"numoutlets" : 2,
					"outlettype" : [ "", "bang" ],
					"parameter_enable" : 0,
					"patching_rect" : [ 445.71429443359375, 423.0, 50.0, 22.0 ],
					"presentation" : 1,
					"presentation_rect" : [ 87.590530395507812, 143.0, 54.0, 22.0 ],
					"tricolor" : [ 0.996078431372549, 0.870588235294118, 0.12156862745098, 1.0 ]
				}

			}
, 			{
				"box" : 				{
					"bgcolor" : [ 0.0, 0.0, 0.0, 0.0 ],
					"fontsize" : 13.0,
					"format" : 6,
					"htricolor" : [ 0.996078431372549, 0.870588235294118, 0.12156862745098, 1.0 ],
					"id" : "obj-17",
					"maxclass" : "flonum",
					"numinlets" : 1,
					"numoutlets" : 2,
					"outlettype" : [ "", "bang" ],
					"parameter_enable" : 0,
					"patching_rect" : [ 507.28570556640625, 423.0, 41.0, 23.0 ],
					"presentation" : 1,
					"presentation_rect" : [ 87.590530395507812, 279.0, 41.0, 23.0 ],
					"tricolor" : [ 0.996078431372549, 0.870588235294118, 0.12156862745098, 1.0 ]
				}

			}
, 			{
				"box" : 				{
					"comment" : "",
					"id" : "obj-15",
					"index" : 0,
					"maxclass" : "outlet",
					"numinlets" : 1,
					"numoutlets" : 0,
					"patching_rect" : [ 147.0, 571.0, 30.0, 30.0 ]
				}

			}
, 			{
				"box" : 				{
					"id" : "obj-10",
					"maxclass" : "newobj",
					"numinlets" : 0,
					"numoutlets" : 14,
					"outlettype" : [ "", "", "", "", "", "", "", "", "", "", "", "", "", "" ],
					"patching_rect" : [ 428.66668701171875, 71.0, 234.0, 22.0 ],
					"text" : "Parameter_Receive_MainDevice1.maxpat"
				}

			}
, 			{
				"box" : 				{
					"bgcolor" : [ 0.0, 0.0, 0.0, 0.0 ],
					"id" : "obj-12",
					"maxclass" : "dial",
					"min" : 10.0,
					"needlecolor" : [ 0.996078431372549, 0.870588235294118, 0.12156862745098, 1.0 ],
					"numinlets" : 1,
					"numoutlets" : 1,
					"outlettype" : [ "float" ],
					"parameter_enable" : 1,
					"patching_rect" : [ 404.666656494140625, 317.0, 40.0, 40.0 ],
					"presentation" : 1,
					"presentation_rect" : [ 92.090530395507812, 96.0, 45.0, 45.0 ],
					"saved_attribute_attributes" : 					{
						"valueof" : 						{
							"parameter_longname" : "dial[27]",
							"parameter_initial_enable" : 1,
							"parameter_mmax" : 511.0,
							"parameter_initial" : [ 0 ],
							"parameter_shortname" : "dial[1]",
							"parameter_type" : 0
						}

					}
,
					"size" : 512.0,
					"varname" : "dial[2]"
				}

			}
, 			{
				"box" : 				{
					"bgcolor" : [ 0.0, 0.0, 0.0, 0.0 ],
					"id" : "obj-14",
					"maxclass" : "dial",
					"needlecolor" : [ 0.996078431372549, 0.870588235294118, 0.12156862745098, 1.0 ],
					"numinlets" : 1,
					"numoutlets" : 1,
					"outlettype" : [ "float" ],
					"parameter_enable" : 1,
					"patching_rect" : [ 476.5, 317.0, 40.0, 40.0 ],
					"presentation" : 1,
					"presentation_rect" : [ 92.090530395507812, 230.0, 45.0, 45.0 ],
					"saved_attribute_attributes" : 					{
						"valueof" : 						{
							"parameter_longname" : "dial[29]",
							"parameter_initial_enable" : 1,
							"parameter_initial" : [ 64.0 ],
							"parameter_shortname" : "dial",
							"parameter_type" : 0
						}

					}
,
					"varname" : "dial[3]"
				}

			}
, 			{
				"box" : 				{
					"bgcolor" : [ 0.0, 0.0, 0.0, 0.0 ],
					"checkedcolor" : [ 0.996078431372549, 0.870588235294118, 0.12156862745098, 1.0 ],
					"id" : "obj-8",
					"maxclass" : "toggle",
					"numinlets" : 1,
					"numoutlets" : 1,
					"outlettype" : [ "int" ],
					"parameter_enable" : 0,
					"patching_rect" : [ 324.3333740234375, 224.0, 24.0, 24.0 ],
					"presentation" : 1,
					"presentation_rect" : [ 97.590530395507812, 475.5, 34.0, 34.0 ]
				}

			}
, 			{
				"box" : 				{
					"comment" : "",
					"id" : "obj-4",
					"index" : 0,
					"maxclass" : "inlet",
					"numinlets" : 0,
					"numoutlets" : 1,
					"outlettype" : [ "" ],
					"patching_rect" : [ 182.0, 160.0, 30.0, 30.0 ]
				}

			}
, 			{
				"box" : 				{
					"id" : "obj-2",
					"maxclass" : "newobj",
					"numinlets" : 7,
					"numoutlets" : 8,
					"outlettype" : [ "signal", "signal", "", "", "", "", "", "" ],
					"patching_rect" : [ 261.0, 376.0, 450.0, 22.0 ],
					"text" : "poly~ filter 1"
				}

			}
, 			{
				"box" : 				{
					"fontname" : "Avenir Next Ultra Light",
					"fontsize" : 20.0,
					"id" : "obj-30",
					"maxclass" : "comment",
					"numinlets" : 1,
					"numoutlets" : 0,
					"patching_rect" : [ 1066.0, 150.0, 211.0, 34.0 ],
					"presentation" : 1,
					"presentation_rect" : [ 42.590530395507812, 0.5, 144.0, 34.0 ],
					"text" : "Filter",
					"textcolor" : [ 0.996078431606293, 0.996078431606293, 0.996078431606293, 1.0 ],
					"textjustification" : 1
				}

			}
, 			{
				"box" : 				{
					"bgcolor" : [ 0.996078431372549, 0.996078431372549, 0.996078431372549, 0.0 ],
					"fontname" : "Avenir Next Regular",
					"fontsize" : 10.0,
					"id" : "obj-27",
					"maxclass" : "comment",
					"numinlets" : 1,
					"numoutlets" : 0,
					"patching_rect" : [ 1240.5, 343.0, 131.0, 20.0 ],
					"presentation" : 1,
					"presentation_rect" : [ 42.590530395507812, 208.0, 144.0, 20.0 ],
					"text" : "Knee",
					"textcolor" : [ 0.996078431606293, 0.996078431606293, 0.996078431606293, 1.0 ],
					"textjustification" : 1
				}

			}
, 			{
				"box" : 				{
					"bgcolor" : [ 0.996078431372549, 0.996078431372549, 0.996078431372549, 0.0 ],
					"fontname" : "Avenir Next Regular",
					"fontsize" : 10.0,
					"id" : "obj-25",
					"maxclass" : "comment",
					"numinlets" : 1,
					"numoutlets" : 0,
					"patching_rect" : [ 1148.0, 343.0, 131.0, 20.0 ],
					"presentation" : 1,
					"presentation_rect" : [ 42.590530395507812, 74.0, 144.0, 20.0 ],
					"text" : "Frequency",
					"textcolor" : [ 0.996078431606293, 0.996078431606293, 0.996078431606293, 1.0 ],
					"textjustification" : 1
				}

			}
, 			{
				"box" : 				{
					"angle" : 270.0,
					"grad1" : [ 0.847058823529412, 0.847058823529412, 0.847058823529412, 1.0 ],
					"grad2" : [ 0.847058823529412, 0.847058823529412, 0.847058823529412, 1.0 ],
					"id" : "obj-53",
					"maxclass" : "panel",
					"mode" : 1,
					"numinlets" : 1,
					"numoutlets" : 0,
					"patching_rect" : [ 973.3333740234375, 95.0, 489.0, 360.0 ],
					"proportion" : 0.5
				}

			}
 ],
		"lines" : [ 			{
				"patchline" : 				{
					"destination" : [ "obj-2", 5 ],
					"source" : [ "obj-1", 0 ]
				}

			}
, 			{
				"patchline" : 				{
					"destination" : [ "obj-14", 0 ],
					"source" : [ "obj-10", 1 ]
				}

			}
, 			{
				"patchline" : 				{
					"destination" : [ "obj-19", 0 ],
					"source" : [ "obj-10", 0 ]
				}

			}
, 			{
				"patchline" : 				{
					"destination" : [ "obj-33", 0 ],
					"source" : [ "obj-10", 2 ]
				}

			}
, 			{
				"patchline" : 				{
					"destination" : [ "obj-2", 1 ],
					"source" : [ "obj-11", 1 ]
				}

			}
, 			{
				"patchline" : 				{
					"destination" : [ "obj-2", 0 ],
					"source" : [ "obj-11", 0 ]
				}

			}
, 			{
				"patchline" : 				{
					"destination" : [ "obj-2", 2 ],
					"source" : [ "obj-12", 0 ]
				}

			}
, 			{
				"patchline" : 				{
					"destination" : [ "obj-11", 0 ],
					"source" : [ "obj-13", 0 ]
				}

			}
, 			{
				"patchline" : 				{
					"destination" : [ "obj-9", 2 ],
					"source" : [ "obj-13", 1 ]
				}

			}
, 			{
				"patchline" : 				{
					"destination" : [ "obj-2", 3 ],
					"source" : [ "obj-14", 0 ]
				}

			}
, 			{
				"patchline" : 				{
					"destination" : [ "obj-9", 1 ],
					"source" : [ "obj-18", 0 ]
				}

			}
, 			{
				"patchline" : 				{
					"destination" : [ "obj-12", 0 ],
					"source" : [ "obj-19", 0 ]
				}

			}
, 			{
				"patchline" : 				{
					"destination" : [ "obj-16", 0 ],
					"source" : [ "obj-2", 4 ]
				}

			}
, 			{
				"patchline" : 				{
					"destination" : [ "obj-17", 0 ],
					"source" : [ "obj-2", 5 ]
				}

			}
, 			{
				"patchline" : 				{
					"destination" : [ "obj-18", 1 ],
					"source" : [ "obj-2", 1 ]
				}

			}
, 			{
				"patchline" : 				{
					"destination" : [ "obj-18", 0 ],
					"source" : [ "obj-2", 0 ]
				}

			}
, 			{
				"patchline" : 				{
					"destination" : [ "obj-20", 1 ],
					"source" : [ "obj-2", 3 ]
				}

			}
, 			{
				"patchline" : 				{
					"destination" : [ "obj-36", 0 ],
					"source" : [ "obj-2", 6 ]
				}

			}
, 			{
				"patchline" : 				{
					"destination" : [ "obj-42", 0 ],
					"source" : [ "obj-21", 0 ]
				}

			}
, 			{
				"patchline" : 				{
					"destination" : [ "obj-2", 5 ],
					"source" : [ "obj-24", 0 ]
				}

			}
, 			{
				"patchline" : 				{
					"destination" : [ "obj-2", 5 ],
					"source" : [ "obj-26", 0 ]
				}

			}
, 			{
				"patchline" : 				{
					"destination" : [ "obj-13", 0 ],
					"order" : 1,
					"source" : [ "obj-3", 0 ]
				}

			}
, 			{
				"patchline" : 				{
					"destination" : [ "obj-9", 0 ],
					"order" : 0,
					"source" : [ "obj-3", 0 ]
				}

			}
, 			{
				"patchline" : 				{
					"destination" : [ "obj-32", 0 ],
					"source" : [ "obj-31", 0 ]
				}

			}
, 			{
				"patchline" : 				{
					"destination" : [ "obj-21", 0 ],
					"source" : [ "obj-32", 0 ]
				}

			}
, 			{
				"patchline" : 				{
					"destination" : [ "obj-2", 4 ],
					"source" : [ "obj-33", 0 ]
				}

			}
, 			{
				"patchline" : 				{
					"destination" : [ "obj-37", 0 ],
					"source" : [ "obj-36", 0 ]
				}

			}
, 			{
				"patchline" : 				{
					"destination" : [ "obj-13", 1 ],
					"source" : [ "obj-4", 0 ]
				}

			}
, 			{
				"patchline" : 				{
					"destination" : [ "obj-1", 0 ],
					"order" : 0,
					"source" : [ "obj-42", 1 ]
				}

			}
, 			{
				"patchline" : 				{
					"destination" : [ "obj-24", 0 ],
					"order" : 0,
					"source" : [ "obj-42", 0 ]
				}

			}
, 			{
				"patchline" : 				{
					"destination" : [ "obj-26", 0 ],
					"order" : 0,
					"source" : [ "obj-42", 2 ]
				}

			}
, 			{
				"patchline" : 				{
					"destination" : [ "obj-43", 0 ],
					"order" : 1,
					"source" : [ "obj-42", 1 ]
				}

			}
, 			{
				"patchline" : 				{
					"destination" : [ "obj-43", 0 ],
					"order" : 1,
					"source" : [ "obj-42", 0 ]
				}

			}
, 			{
				"patchline" : 				{
					"destination" : [ "obj-44", 0 ],
					"order" : 1,
					"source" : [ "obj-42", 2 ]
				}

			}
, 			{
				"patchline" : 				{
					"destination" : [ "obj-33", 0 ],
					"order" : 1,
					"source" : [ "obj-43", 0 ]
				}

			}
, 			{
				"patchline" : 				{
					"destination" : [ "obj-37", 0 ],
					"order" : 0,
					"source" : [ "obj-43", 0 ]
				}

			}
, 			{
				"patchline" : 				{
					"destination" : [ "obj-33", 0 ],
					"order" : 1,
					"source" : [ "obj-44", 0 ]
				}

			}
, 			{
				"patchline" : 				{
					"destination" : [ "obj-37", 0 ],
					"order" : 0,
					"source" : [ "obj-44", 0 ]
				}

			}
, 			{
				"patchline" : 				{
					"destination" : [ "obj-6", 0 ],
					"source" : [ "obj-5", 0 ]
				}

			}
, 			{
				"patchline" : 				{
					"destination" : [ "obj-2", 6 ],
					"midpoints" : [ 342.5, 308.5, 701.5, 308.5 ],
					"order" : 0,
					"source" : [ "obj-6", 0 ]
				}

			}
, 			{
				"patchline" : 				{
					"destination" : [ "obj-3", 0 ],
					"order" : 1,
					"source" : [ "obj-6", 0 ]
				}

			}
, 			{
				"patchline" : 				{
					"destination" : [ "obj-8", 0 ],
					"source" : [ "obj-7", 0 ]
				}

			}
, 			{
				"patchline" : 				{
					"destination" : [ "obj-5", 0 ],
					"source" : [ "obj-8", 0 ]
				}

			}
, 			{
				"patchline" : 				{
					"destination" : [ "obj-15", 0 ],
					"source" : [ "obj-9", 0 ]
				}

			}
 ],
		"parameters" : 		{
			"obj-14" : [ "dial[29]", "dial", 0 ],
			"obj-12" : [ "dial[27]", "dial[1]", 0 ],
			"obj-33" : [ "dial[28]", "dial[2]", 0 ],
			"parameterbanks" : 			{

			}

		}
,
		"dependency_cache" : [ 			{
				"name" : "filter.maxpat",
				"bootpath" : "~/Desktop/Test 6.0 VERS1/patchers",
				"patcherrelativepath" : ".",
				"type" : "JSON",
				"implicit" : 1
			}
, 			{
				"name" : "Parameter_Receive_MainDevice1.maxpat",
				"bootpath" : "~/Desktop/Test 6.0 VERS1/patchers",
				"patcherrelativepath" : ".",
				"type" : "JSON",
				"implicit" : 1
			}
 ],
		"autosave" : 0
	}

}
